<svg width="150" height="150" viewBox="0 0 150 150" fill="none" xmlns="http://www.w3.org/2000/svg">
<path d="M128.046 21.9539C113.858 7.79363 95.0329 0 75 0C54.9671 0 36.1416 7.79363 21.9539 21.9539C7.79363 36.1416 0 54.9671 0 75C0 95.0329 7.79363 113.858 21.9539 128.046C36.1142 142.206 54.9671 150 75 150C95.0329 150 113.858 142.206 128.046 128.046C142.206 113.886 150 95.0329 150 75C150 54.9671 142.206 36.1416 128.046 21.9539Z" fill="#FFC700"/>
<path d="M76.8111 135.071L37.596 111.471L37.4313 111.334C32.135 107.217 29.0889 100.988 29.0889 94.2645V37.0472L76.5093 17.371L123.93 37.0472V94.3468C123.93 101.015 120.938 107.19 115.697 111.334L115.532 111.471L115.34 111.581L76.8111 135.071ZM41.7947 105.351L76.7837 126.4L111.279 105.379C114.627 102.662 116.52 98.6553 116.52 94.3468V41.9868L76.5093 25.3841L36.4709 41.9868V94.2645C36.4709 98.6278 38.4193 102.634 41.7947 105.351Z" fill="black"/>
<path d="M74.8353 95.4171L53.2656 77.113L58.5894 70.8287L73.6828 83.6443L95.7464 55.9824L102.195 61.1141L74.8353 95.4171Z" fill="black"/>
</svg>
