<svg fill="none" height="61" viewBox="0 0 658 61" width="658" xmlns="http://www.w3.org/2000/svg"><g fill="#3cc5d1"><path d="m58.9658 39.7361c-2.0549-1.9989-3.0777-3.0053-5.128-5.0275-11.8411-11.3411-23.4733-22.8904-34.8966-34.647809h-18.9412s5.49664 2.059469 5.16952 8.256569v52.43764c4.51527-.3479 9.03058-.688 13.54588-1.0204v-41.0546c10.379 10.167 20.9161 20.1615 31.6115 29.9837 5.9896 5.2326 14.2093 8.1448 22.1617 7.4552.0215-18.6876.0461-37.3736.0737-56.058109h-13.5596c-.0123 13.226709-.0246 26.451809-.0369 39.675309z"/><path d="m148.036 1.86866c-2.703-1.208354-6.452-1.81404-11.247-1.8171463h-30.003c-4.866 0-8.6682.6352253-11.4081 1.9057063-2.7399 1.27048-4.6596 3.14824-5.7593 5.63329-1.0965 2.48509-1.6479 5.53859-1.6541 9.16049 0 7.216-.0122 14.4366-.0368 21.6619 0 3.6903.5606 6.7578 1.6817 9.2025 1.1211 2.4446 3.0532 4.2121 5.7962 5.3025 2.7322 1.0949 6.5014 1.5003 11.2924 1.2487 9.998-.5218 19.998-1.0142 29.999-1.4771 5.027-.1351 11.058-1.0064 14.698-4.6594 2.677-2.6746 4.022-6.7469 4.031-11.9189 0-6.7904.013-13.5778.037-20.362 0-3.4169-.56-6.27778-1.681-8.58266-1.122-2.30489-3.037-4.07088-5.746-5.29788zm-6.197 35.70554c.03.8968-.145 1.7886-.512 2.6056-.367.8171-.915 1.5376-1.603 2.1052-1.406 1.1835-3.375 1.8249-5.906 1.9243-8.045.3107-16.089.6414-24.134.9924-2.534.1119-4.531-.368-5.99-1.4397s-2.191-2.659-2.197-4.762c0-7.8652.012-15.7288.036-23.5909-.024-.9157.169-1.824.563-2.6486s.979-1.5414 1.704-2.0901c1.505-1.18349 3.493-1.78612 5.962-1.80787l24.134-.19566c2.465 0 4.414.58242 5.851 1.78923.669.5151 1.211 1.1798 1.584 1.9421.372.7623.565 1.6015.563 2.4518z"/><path d="m237.573 6.71021c-1.161-2.20393-3.225-3.87665-6.211-4.98094-3.847-1.425802-8.754-1.7985488-12.79-1.6774025h-55.045s8.395 1.9662925 8.385 6.9892125c-.024 14.73632-.05 29.47422-.078 44.21372 15.555-.5684 31.109-1.0624 46.664-1.4817 4.317-.2656 8.828-.3961 12.901-1.9943 2.976-1.1695 5.04-2.8935 6.174-5.1254 1.133-2.2319 1.705-5.0089 1.705-8.3544l.027-19.3322c.009-3.3051-.568-6.05732-1.732-8.25659zm-11.86 28.79559c-.073 3.9885-2.749 6.0386-8.026 6.1505-10.75.2422-21.501.514-32.252.8154.019-11.3785.039-22.76.06-34.14461 10.751-.05591 21.501-.10876 32.252-.15846 3.013 0 5.102.56691 6.266 1.70072.561.53285 1.005 1.17815 1.305 1.89465.3.7164.449 1.4884.437 2.2663-.016 7.1569-.029 14.3154-.042 21.4755z"/><path d="m312.738 1.73359c-2.706-1.124487-6.456-1.6851698-11.251-1.6820635h-29.999c-4.866 0-8.668.5668565-11.408 1.7006635-2.74 1.1338-4.66 2.79883-5.759 4.995-1.097 2.19305-1.648 4.90021-1.654 8.12141v19.225c0 3.2772.562 6.0154 1.686 8.2147 1.124 2.1992 3.058 3.8316 5.801 4.8971 2.739 1.0623 6.51 1.5593 11.311 1.491 10.007-.1305 20.015-.2314 30.022-.3029 4.921.056 10.933-.4659 14.702-3.8068 2.668-2.381 4.013-6.1505 4.013-10.9684 0-6.3182 0-12.638 0-18.9593 0-3.1747-.565-5.84149-1.695-8.00037-1.131-2.15889-3.054-3.80056-5.769-4.92504zm-6.109 32.90521c.027.8348-.152 1.6633-.52 2.4108-.368.7476-.915 1.3906-1.591 1.8712-1.403 1.0499-3.374 1.5827-5.911 1.5982-8.054.0497-16.107.1165-24.161.2004-2.534.0279-4.531-.4597-5.99-1.4631-.708-.464-1.284-1.1071-1.671-1.8655-.387-.7583-.572-1.6058-.536-2.4585 0-7.042 0-14.084 0-21.126-.014-.8431.186-1.6757.582-2.4176.397-.7419.975-1.368 1.681-1.8179 1.508-1.05305 3.495-1.58113 5.961-1.58424l24.148-.04192c2.457 0 4.409.55913 5.856 1.6774 1.438 1.12296 2.161 2.47886 2.156 4.06776z"/><path d="m395.718.0513456c-7.065 12.6147544-14.15 25.2139544-21.254 37.7976544-6.964-12.6086-13.944-25.2078-20.941-37.7976544h-23.913s7.018.8899434 7.018 6.5651744v41.69298c4.524 0 9.049.0155 13.573.0465 0-10.2135 0-20.4286 0-30.6453h1.027c1.645 2.8609 2.47 4.2914 4.115 7.1617 4.328 7.8186 8.65 15.6418 12.965 23.4697 4.976.0466 7.464.0699 12.44.1351 4.316-7.7968 8.627-15.5952 12.933-23.3952 1.599-2.8702 2.401-4.31 4-7.1896h1.133v15.5533 15.4229c4.518.0746 9.041.1569 13.569.2469-.019-16.3578-.039-32.7172-.06-49.0781465z"/><path d="m450.675.0515137c-9.909 16.4820863-19.922 32.8973863-30.04 49.2458863 5.003.1119 10.007.2299 15.011.3542 2.663-4.1936 3.999-6.3322 6.662-10.577 12.265.2671 24.53.5684 36.795.9039 2.433 4.4638 3.649 6.7097 6.082 11.2154 5.274.2019 10.549.4084 15.826.6197-9.878-17.3488-19.91-34.6028-30.095-51.7620863zm-4.676 30.7897863c4.736-7.6819 9.449-15.3794 14.14-23.09233h1.027c4.74 7.86523 9.447 15.74893 14.122 23.65143-9.765-.2019-19.528-.3883-29.289-.5591z"/><path d="m565.441 32.118c1.955-.8889 3.664-2.2507 4.976-3.9652 1.101-1.4638 1.901-3.135 2.355-4.9157.386-1.5008.59-3.0436.608-4.5943v-1.7892c-.015-1.8648-.19-3.7248-.525-5.5587-.36-1.98717-1.147-3.87038-2.304-5.51687-1.201-1.724-3.053-3.12184-5.557-4.19352-2.503-1.071681-5.945-1.5997087-10.325-1.58417715h-52.902s8.399 1.57019715 8.413 7.18020715c.027 15.01906.053 30.03656.078 45.05246 4.525.1957 9.046.3976 13.564.6057 0-6.6662-.012-13.3338-.036-20.0031l3.183.0932c5.414.1584 8.091.9039 11.671 2.2598 4.445 1.7164 8.698 3.9029 12.689 6.5233 7.221 4.8086 14.398 9.6762 21.53 14.6028 6.632.3945 13.259.8014 19.881 1.2208-11.675-8.2566-23.608-16.2383-35.772-23.7354 3.493-.0745 6.317-.6352 8.473-1.6821zm-19.273-7.0404c-2.055.0404-4.383.031-6.984-.028-2.194-.0528-4.557-.1366-7.091-.2516-2.534-.1149-5.308-.2966-8.321-.5452l-.028-15.60918 28.045.22831c3.014.02174 5.104.71911 6.271 2.09207 1.179 1.4009 1.804 3.1933 1.756 5.0323v2.134c.039.8602-.099 1.7194-.408 2.5219-.309.8026-.781 1.5308-1.385 2.1376-1.193 1.1788-3.336 1.9243-6.312 2.1154-1.617.0652-3.488.1072-5.543.1724z"/><path d="m644.449.0605722v43.2072278c0 3.1312-.82 5.2078-2.46 6.2297-1.731 1.0388-3.741 1.5001-5.745 1.3187-7.253-.4536-14.506-.89-21.761-1.3093-2.091-.0591-4.122-.7185-5.856-1.9011-1.576-1.1276-2.365-3.2197-2.368-6.2763l-.042-41.2735918h-13.564c.018 13.4192918.035 26.8400918.05 40.2624918-.193 4.1003 1.152 9.4401 3.714 12.711 3.078 3.9279 8.293 5.3677 13.044 5.5914 10.643.7268 21.283 1.4895 31.92 2.2878 4.239.3168 7.556-.191 9.952-1.5563 2.375-1.3457 4.194-3.5081 5.128-6.0946 1.027-2.6932 1.539-5.9222 1.539-9.6591v-43.5380278z"/></g></svg>