<svg fill="none" height="150" viewBox="0 0 150 150" width="150" xmlns="http://www.w3.org/2000/svg"><path d="m128.046 21.9539c-14.188-14.16027-33.0131-21.9539-53.046-21.9539s-38.8584 7.79363-53.0461 21.9539c-14.16027 14.1877-21.9539 33.0132-21.9539 53.0461s7.79363 38.858 21.9539 53.046c14.1603 14.16 33.0132 21.954 53.0461 21.954s38.858-7.794 53.046-21.954c14.16-14.16 21.954-33.0131 21.954-53.046s-7.794-38.8584-21.954-53.0461z" fill="#ffc700"/><g fill="#000"><path d="m121.817 102.14h-93.6337v-64.8733h93.6337zm-86.7731-6.8601h79.9121v-51.1526h-79.9121z"/><path d="m50.4391 130.681c-.5214 0-1.0428-.11-1.5367-.357-1.7015-.851-2.3875-2.909-1.5368-4.611l14.3249-28.5122c.8507-1.7014 2.9089-2.3874 4.6103-1.5367 1.7015.8507 2.3875 2.9089 1.5368 4.6099l-14.3249 28.513c-.6312 1.18-1.8386 1.894-3.0736 1.894z"/><path d="m98.7926 130.681c-1.2623 0-2.4698-.687-3.0735-1.894l-14.3249-28.513c-.8507-1.701-.1647-3.7592 1.5367-4.6099 1.7015-.8507 3.7596-.1647 4.6104 1.5367l14.2977 28.4852c.85 1.701.164 3.76-1.537 4.61-.4666.247-.988.385-1.5094.385z"/><path d="m104.446 58.5895h-57.6295c-1.8935 0-3.4303-1.5368-3.4303-3.4303s1.5368-3.4303 3.4303-3.4303h57.6295c1.893 0 3.43 1.5368 3.43 3.4303s-1.537 3.4303-3.43 3.4303z"/><path d="m104.446 70.9934h-57.6295c-1.8935 0-3.4303-1.5368-3.4303-3.4303s1.5368-3.4303 3.4303-3.4303h57.6295c1.893 0 3.43 1.5368 3.43 3.4303s-1.537 3.4303-3.43 3.4303z"/><path d="m104.446 83.3973h-24.6986c-1.8935 0-3.4303-1.5367-3.4303-3.4303 0-1.8935 1.5368-3.4303 3.4303-3.4303h24.6986c1.893 0 3.43 1.5368 3.43 3.4303 0 1.8936-1.537 3.4303-3.43 3.4303z"/></g></svg>