<svg width="150" height="150" viewBox="0 0 150 150" fill="none" xmlns="http://www.w3.org/2000/svg">
<path d="M149.942 72.0374C149.887 70.6316 149.793 69.2345 149.662 67.8489C149.38 64.8776 148.928 61.9571 148.31 59.0961C148.012 57.7179 147.676 56.3526 147.303 55.0034C147.001 53.9109 146.676 52.8286 146.328 51.7565C136.544 21.7129 108.308 0 75 0C41.7168 0 13.4984 21.6796 3.69378 51.6883C3.34849 52.7459 3.0264 53.8137 2.72754 54.8902C2.36628 56.1902 2.03985 57.5031 1.74823 58.8292C1.07796 61.8803 0.593384 65.0024 0.306122 68.1812C0.185705 69.5188 0.100106 70.8666 0.0507786 72.2231C0.0174098 73.1444 0 74.07 0 75C0 75.1872 0.00290163 75.3729 0.00290163 75.5586C0.0203114 77.9016 0.143631 80.2186 0.371409 82.5051C0.458458 83.3857 0.562917 84.262 0.680433 85.134C0.7994 86.0117 0.932876 86.8851 1.08086 87.7527C2.12109 93.8258 3.89109 99.6494 6.298 105.131C6.68392 106.01 7.08724 106.88 7.50653 107.742C7.93452 108.623 8.37847 109.493 8.83983 110.354C13.6652 119.365 20.2766 127.274 28.2024 133.612L42.6845 112.141L45.2699 113.885L48.2469 109.471C46.8179 108.359 45.4483 107.152 44.1469 105.852C35.9063 97.611 31.3681 86.6544 31.3681 75C31.3681 63.3456 35.9063 52.389 44.1469 44.1484C52.3876 35.9077 63.3441 31.3696 74.9986 31.3696C86.653 31.3696 97.6095 35.9077 105.85 44.1484C114.091 52.389 118.629 63.3456 118.629 75C118.629 86.6544 114.091 97.611 105.85 105.852C104.375 107.327 102.811 108.682 101.171 109.915C99.2693 111.347 97.2657 112.612 95.178 113.703C89.0236 116.921 82.1424 118.629 74.9986 118.629C67.8547 118.629 60.9749 116.921 54.8191 113.703C54.2228 113.392 53.6338 113.064 53.052 112.724L50.0808 117.129L52.6661 118.873L38.1783 140.352C49.055 146.493 61.6162 149.999 74.9971 149.999C103.635 149.999 128.522 133.948 141.157 110.352C141.619 109.492 142.063 108.621 142.491 107.741C142.91 106.879 143.312 106.008 143.699 105.129C146.099 99.6668 147.864 93.8621 148.906 87.8107C149.056 86.9417 149.19 86.0683 149.309 85.1905C149.428 84.3186 149.533 83.4408 149.62 82.5588C149.855 80.2099 149.981 77.8305 149.994 75.4236C149.996 75.2815 149.997 75.1407 149.997 74.9986C150 74.0076 149.98 73.0196 149.942 72.0374Z" fill="black"/>
<path d="M75.0001 86.7023C63.8332 86.7023 54.6727 95.4463 54.001 106.448C60.0132 110.475 67.2368 112.827 75.0001 112.827C82.7634 112.827 89.9885 110.475 95.9992 106.448C95.3275 95.4463 86.1671 86.7023 75.0001 86.7023Z" fill="black"/>
<path d="M75 81.4793C87.7454 81.4793 98.3973 90.605 100.769 102.664C108.183 95.7539 112.827 85.9101 112.827 75C112.827 54.1416 95.8584 37.1729 75 37.1729C54.1416 37.1729 37.1729 54.1416 37.1729 75C37.1729 85.9101 41.8169 95.7539 49.2306 102.664C51.6027 90.605 62.2546 81.4793 75 81.4793ZM75 51.0934C82.4064 51.0934 88.4317 57.1187 88.4317 64.5251C88.4317 71.9315 82.4064 77.9568 75 77.9568C67.5936 77.9568 61.5683 71.9315 61.5683 64.5251C61.5683 57.1187 67.5936 51.0934 75 51.0934Z" fill="black"/>
<path d="M75 72.7338C79.5335 72.7338 83.2087 69.0587 83.2087 64.5251C83.2087 59.9916 79.5335 56.3164 75 56.3164C70.4664 56.3164 66.7913 59.9916 66.7913 64.5251C66.7913 69.0587 70.4664 72.7338 75 72.7338Z" fill="black"/>
<path d="M75 77.9553C82.4065 77.9553 88.4317 71.93 88.4317 64.5236C88.4317 57.1172 82.4065 51.0919 75 51.0919C67.5936 51.0919 61.5684 57.1172 61.5684 64.5236C61.5684 71.93 67.5936 77.9553 75 77.9553ZM75 56.3163C79.5266 56.3163 83.2088 59.9985 83.2088 64.525C83.2088 69.0516 79.5266 72.7338 75 72.7338C70.4735 72.7338 66.7913 69.0516 66.7913 64.525C66.7913 59.9985 70.4735 56.3163 75 56.3163Z" fill="white"/>
<path d="M50.0836 117.13L53.0549 112.726C53.6367 113.065 54.2257 113.393 54.822 113.705C60.9764 116.923 67.8576 118.63 75.0014 118.63C82.1452 118.63 89.025 116.923 95.1808 113.705C97.2686 112.614 99.2721 111.349 101.174 109.917C102.812 108.684 104.376 107.329 105.853 105.853C114.094 97.6124 118.632 86.6558 118.632 75.0014C118.632 63.347 114.094 52.3904 105.853 44.1498C97.6124 35.9091 86.6558 31.371 75.0014 31.371C63.347 31.371 52.3904 35.9091 44.1498 44.1498C35.9091 52.3904 31.371 63.347 31.371 75.0014C31.371 86.6558 35.9091 97.6124 44.1498 105.853C45.4512 107.154 46.8207 108.361 48.2498 109.473L45.2727 113.886L42.6874 112.142L28.2039 133.612C31.3347 136.114 34.6702 138.372 38.1811 140.353L52.669 118.874L50.0836 117.13ZM75 112.827C67.2366 112.827 60.0116 110.475 54.0008 106.448C54.6726 95.4478 63.833 86.7022 75 86.7022C86.1669 86.7022 95.3274 95.4463 95.9991 106.448C89.9884 110.474 82.7633 112.827 75 112.827ZM37.1728 75C37.1728 54.1416 54.1416 37.1728 75 37.1728C95.8584 37.1728 112.827 54.1416 112.827 75C112.827 85.9101 108.183 95.7539 100.769 102.664C98.3973 90.6049 87.7454 81.4793 75 81.4793C62.2545 81.4793 51.6026 90.6049 49.2305 102.664C41.8169 95.7539 37.1728 85.9101 37.1728 75Z" fill="white"/>
</svg>
