<svg fill="none" height="150" viewBox="0 0 150 150" width="150" xmlns="http://www.w3.org/2000/svg"><path d="m128.046 21.9539c-14.188-14.16027-33.0131-21.9539-53.046-21.9539s-38.8584 7.79363-53.0461 21.9539c-14.16027 14.1877-21.9539 33.0132-21.9539 53.0461s7.79363 38.858 21.9539 53.046c14.1603 14.16 33.0132 21.954 53.0461 21.954s38.858-7.794 53.046-21.954c14.16-14.16 21.954-33.0131 21.954-53.046s-7.794-38.8584-21.954-53.0461z" fill="#3cc5d1"/><g fill="#000"><path d="m97.6951 26.9758v13.5017h-16.8771v13.5016h-16.877v23.8749c-3.9792-2.3052-8.5895-3.6224-13.5017-3.6224-14.9012 0-27.0033 12.1295-27.0033 27.0034 0 14.874 12.1296 27.003 27.0033 27.003 16.1361 0 28.842-14.188 26.8112-30.3785h44.0995v-70.8837zm-57.629 91.6852v-.741c0-5.598 4.5554-10.126 10.1262-10.126s10.1263 4.555 10.1263 10.126v1.015c-6.1746 3.458-13.9133 3.513-20.2525-.274zm6.7508-20.9936c0-1.8661 1.5094-3.3754 3.3754-3.3754 1.8661 0 3.3755 1.5093 3.3755 3.3754s-1.5094 3.3756-3.3755 3.3756c-1.8386 0-3.3754-1.5095-3.3754-3.3756zm19.7037 15.8896c-1.1801-4.364-4.0615-8.069-7.9034-10.264 1.0702-1.619 1.7014-3.54 1.7014-5.6256 0-5.5983-4.5555-10.1263-10.1263-10.1263s-10.1262 4.528-10.1262 10.1263c0 2.0856.6312 4.0336 1.7014 5.6256-3.7047 2.141-6.5312 5.653-7.7662 9.824-2.4149-3.348-3.8419-7.436-3.8419-11.855 0-11.1687 9.0834-20.2521 20.2525-20.2521 11.169 0 20.2525 9.0834 20.2525 20.2521.0274 4.611-1.5368 8.892-4.1438 12.295zm14.2974-22.4209h-5.3512c-1.0703-2.6345-2.6894-5.3513-4.775-7.7388v-22.6399h10.1262zm16.8771 0h-10.1262c0-2.2777 0-41.8222 0-43.8804h10.1262zm16.8769 0h-10.126c0-1.921 0-54.4731 0-57.4094h10.126z"/><path d="m49.2317 53.5674 9.8519-16.438h13.2272l14.517-18.1394-5.2689-4.2261-12.4863 15.6147h-13.8035l-10.4007 17.3162-12.157 3.0461 1.6466 6.5587z"/></g></svg>