<svg fill="none" height="48" viewBox="0 0 48 48" width="48" xmlns="http://www.w3.org/2000/svg"><path d="m24.003 0c-13.2569 0-24.003 10.7474-24.003 24s10.7461 24 24.003 24c13.2568 0 23.997-10.7474 23.997-24s-10.7411-24-23.997-24zm13.6604 34.1524c-3.0006.2598-6.1024-.8271-8.3612-2.7769-4.0326-3.6661-8.0073-7.3947-11.9242-11.1857l-.0059 15.3163c-1.7036.1243-3.4069.2513-5.1098.3809 0-6.521 0-13.0424 0-19.564.1229-2.3118-1.9515-3.0804-1.9515-3.0804h7.1465c4.3109 4.3888 8.6988 8.6979 13.1637 12.9273.7744.7537 1.1612 1.1286 1.9346 1.8744l.0179-14.8026h5.1167c-.0086 6.9699-.0175 13.9401-.0268 20.9107z" fill="#fff"/></svg>