<svg fill="none" height="36" viewBox="0 0 36 36" width="36" xmlns="http://www.w3.org/2000/svg"><path d="m18.0022 0c-9.94262 0-18.0022 8.06058-18.0022 18 0 9.9394 8.05958 18 18.0022 18 9.9427 0 17.9978-8.0606 17.9978-18 0-9.93942-8.0559-18-17.9978-18zm10.2454 25.6143c-2.2505.1949-4.5768-.6203-6.271-2.0826-3.0244-2.7496-6.0054-5.5461-8.9431-8.3894l-.0045 11.4873c-1.2777.0932-2.5551.1884-3.8323.2856 0-4.8907 0-9.7817 0-14.673.09222-1.7338-1.46361-2.31021-1.46361-2.31021h5.35991c3.2332 3.29161 6.5241 6.52341 9.8727 9.69541.5809.5653.8709.8465 1.451 1.4058l.0134-11.10196h3.8376c-.0065 5.22746-.0132 10.45516-.0201 15.68306z" fill="#ffc700"/></svg>