<svg fill="none" height="150" viewBox="0 0 150 150" width="150" xmlns="http://www.w3.org/2000/svg"><g fill="#3cc5d1"><path d="m128.046 21.9539c-14.188-14.16027-33.0131-21.9539-53.046-21.9539s-38.8584 7.79363-53.0461 21.9539c-14.16027 14.1877-21.9539 33.0132-21.9539 53.0461s7.79363 38.858 21.9539 53.046c14.1603 14.16 33.0132 21.954 53.0461 21.954s38.858-7.794 53.046-21.954c14.16-14.16 21.954-33.0131 21.954-53.046s-7.794-38.8584-21.954-53.0461zm-20.993 58.1504v39.5997l-13.694 12.211-13.6938-12.211v-10.017l3.7871-5.351-4.6104-7.2449 4.4457-5.2415-2.8814-4.2535c-3.0736 1.866-6.5313 3.0735-10.1812 3.4577l-18.3315 35.0992-17.8101 4.473-6.4764-17.179 4.6378-8.892 5.8178-2.991-.7135-8.5344 6.3666-2.5795-.7135-6.4764 2.9363-5.6257c-3.9242-7.1899-4.0614-15.944-.2195-23.2712.3019-.5763.6312-1.1525.9879-1.7014-1.4819-3.4852-2.2503-7.2722-2.2503-11.0867 0-15.7245 12.7882-28.5401 28.5401-28.5401 13.584 0 25 9.55 27.8543 22.3107 9.961 3.1833 17.206 12.5137 17.206 23.5181-.027 8.2876-4.199 15.9715-11.004 20.5269z"/><path d="m60.2085 42.9748c4.9122-1.5368 10.0988-1.5093 14.9012.0549 4.528-4.9671 11.0318-8.0955 18.2492-8.0955-3.0187-8.315-11.0044-14.2975-20.3623-14.2975-11.9374 0-21.6795 9.7146-21.6795 21.6795 0 1.7563.1921 3.4852.6038 5.1317 2.4149-2.0033 5.214-3.5126 8.2876-4.4731z"/><path d="m64.6816 62.3216c1.3996.5763 2.8541 1.0154 4.3359 1.2898-.1097-.6861-.192-1.3721-.2469-2.0582-.3842-.0823-.7684-.1372-1.1526-.1372-1.0703 0-2.0856.3019-2.9364.9056z"/><path d="m74.9177 75.9881c-1.0977.8507-2.3601 1.5093-3.7322 1.9484-1.18.3567-2.3875.5488-3.595.5488-1.8935 0-3.787-.4665-5.5159-1.3721-2.8265-1.4819-4.9122-3.9791-5.8726-7.0252-.9605-3.0461-.6587-6.2843.8232-9.1109 2.3875-4.5829 7.3546-6.9704 12.1844-6.3118.4117-1.9758 1.0428-3.8419 1.8661-5.6256-2.9089-.5763-5.9001-.4391-8.809.4665-4.528 1.427-8.2601 4.528-10.4555 8.7541-2.9912 5.7355-2.6345 12.6784.933 18.0845l1.1252 1.674-3.7871 7.2722 1.0428 9.55-6.4764 2.6345.6861 8.0955-7.9857 4.089-2.2229 4.226 3.2382 8.589 8.8913-2.25 18.7432-35.867 2.0307-.0549c4.2536-.1098 8.2602-1.7014 11.3337-4.4182-1.674-1.1251-3.1559-2.4424-4.4456-3.8968z"/><path d="m65.2304 71.0208c1.2075.6312 2.5796.7684 3.8969.3568.4939-.1647.9605-.3842 1.3721-.6587-2.4973-.2195-4.9671-.7683-7.2997-1.619.4665.8232 1.1526 1.4818 2.0307 1.9209z"/><path d="m111.169 59.6049c0-6.8881-3.952-12.8979-9.687-15.8617-.11 2.1405-.439 4.2261-.988 6.2294 2.936 2.1954 4.857 5.6806 4.857 9.6048 0 6.5862-5.3783 11.9649-11.9645 11.9649s-11.9649-5.3787-11.9649-11.9649c0-6.5861 5.3787-11.9648 11.9649-11.9648.2195 0 .4117 0 .6312.0274.4391-1.7289.6586-3.5126.6586-5.3513 0-.1646 0-.3018 0-.4665-.4116-.0274-.8507-.0549-1.2898-.0549-9.8244 0-17.8101 7.9858-17.8101 17.8101 0 6.4764 3.5126 12.4589 9.1932 15.5873l1.7563.9879v8.2053l5.3513 7.9857-4.5554 5.3513 4.3633 6.8601-5.1866 7.328v4.775l6.8331 6.092 6.8334-6.092v-40.4779l1.756-.988c5.708-3.1558 9.248-9.1108 9.248-15.5872z"/><path d="m89.9011 55.8452c-.3018.2744-.5762.6037-.8232.9605.3018-.3293.5763-.6312.8232-.9605z"/><path d="m91.2185 64.2151c.6586.3018 1.3721.4665 2.1405.4665 2.8266 0 5.1043-2.2777 5.1043-5.1043 0-1.0428-.3293-2.0307-.8507-2.8266-1.674 2.7992-3.8145 5.3239-6.3941 7.4644z"/></g><path d="m100.823 36.0868c-2.8538-12.7607-14.2424-22.3107-27.8538-22.3107-15.7245 0-28.5401 12.7882-28.5401 28.5401 0 3.8145.7684 7.6015 2.2503 11.0867-.3568.5489-.6861 1.1251-.9879 1.7014-3.842 7.3272-3.7048 16.0813.2195 23.2712l-2.9089 5.5982.7135 6.4764-6.3666 2.5796.7135 8.5343-5.8178 2.991-4.6378 8.892 6.4764 17.179 17.8101-4.473 18.3315-35.0992c3.6499-.3842 7.1076-1.5916 10.1812-3.4577l2.854 4.281-4.4457 5.2415 4.6103 7.2444-3.787 5.352v10.016l13.6937 12.212 13.6936-12.212v-39.6267c6.806-4.5554 10.977-12.2393 10.977-20.5269.028-10.9769-7.217-20.3348-17.179-23.4906zm-.631 40.0933v40.4779l-6.8331 6.092-6.8332-6.092v-4.775l5.1866-7.328-4.3633-6.8601 4.528-5.3238-5.3513-7.9857v-8.2053l-1.7563-.9879c-5.6806-3.1285-9.1932-9.1109-9.1932-15.5873 0-9.8244 7.9857-17.8101 17.8101-17.8101.4391 0 .8507.0274 1.2898.0549v.4665c0 1.8386-.2195 3.6224-.6586 5.3513-.2196 0-.4117-.0275-.6312-.0275-6.5862 0-11.9649 5.3787-11.9649 11.9649s5.3787 11.9649 11.9649 11.9649 11.9647-5.3787 11.9647-11.9649c0-3.9243-1.921-7.4369-4.857-9.6048.549-2.0033.905-4.089.988-6.2295 5.763 2.9638 9.687 8.9463 9.687 15.8617 0 6.4764-3.54 12.4589-9.193 15.5873zm-34.2206 8.2053-18.7432 35.8676-8.8913 2.25-3.2382-8.59 2.2228-4.226 7.9858-4.089-.6861-8.0952 6.4764-2.6345-1.0428-9.5499 3.787-7.2722-1.1251-1.674c-3.5675-5.4062-3.9243-12.3491-.933-18.0845 2.1954-4.2262 5.9275-7.3272 10.4555-8.7542 2.9089-.9056 5.9001-1.0702 8.809-.4665-.8507 1.7563-1.4819 3.6499-1.8661 5.6257-4.8573-.6586-9.7969 1.7289-12.1844 6.3118-1.4819 2.8265-1.7563 6.0647-.8233 9.1108.9331 3.0461 3.0461 5.5434 5.8727 7.0253 1.7289.9056 3.6224 1.3721 5.5159 1.3721 1.2075 0 2.415-.1921 3.595-.5489 1.3721-.439 2.6344-1.0977 3.7321-1.9484 1.2898 1.4545 2.7717 2.7717 4.4183 3.9243-3.101 2.7168-7.0802 4.3359-11.3337 4.4182zm2.7716-22.8321c.0549.6861.1373 1.3721.247 2.0582-1.4819-.2744-2.9363-.7135-4.3359-1.2898.8507-.6037 1.8661-.9056 2.9089-.9056.4117 0 .7959.0274 1.18.1372zm1.7289 9.1658c-.4116.2744-.8781.5214-1.3721.6586-1.2898.4116-2.6894.2744-3.8968-.3568-.8507-.4391-1.5642-1.1251-2.0308-1.9484 2.3601.8782 4.8025 1.427 7.2997 1.6466zm27.9912-11.1142c0 2.8266-2.2777 5.1043-5.1042 5.1043-.7684 0-1.4819-.1647-2.1406-.4665 2.5796-2.1406 4.7201-4.6653 6.3667-7.4644.5488.7959.8781 1.7563.8781 2.8266zm-9.3853-2.7991c.2196-.3568.5215-.6861.8233-.9605-.247.3293-.5214.6312-.8233.9605zm-16.1086-36.1691c9.3578 0 17.3436 5.955 20.3622 14.2975-7.2173 0-13.7486 3.1284-18.2492 8.0955-4.8024-1.5368-9.9615-1.5917-14.9012-.0549-3.0735.9605-5.8726 2.4973-8.2876 4.4731-.4116-1.674-.6037-3.3754-.6037-5.1317.0274-11.9649 9.742-21.6795 21.6795-21.6795z" fill="#000"/></svg>