<svg width="150" height="150" viewBox="0 0 150 150" fill="none" xmlns="http://www.w3.org/2000/svg">
<path d="M149.942 72.0374C149.887 70.6316 149.793 69.2345 149.662 67.8489C149.38 64.8776 148.928 61.9571 148.31 59.0961C148.012 57.7179 147.676 56.3526 147.303 55.0034C147.001 53.9109 146.676 52.8286 146.328 51.7565C136.544 21.7129 108.308 0 75 0C41.7168 0 13.4984 21.681 3.69378 51.6883C3.34849 52.7459 3.0264 53.8137 2.72754 54.8902C2.36628 56.1902 2.03985 57.5031 1.74823 58.8292C1.07796 61.8803 0.593384 65.0024 0.306122 68.1812C0.185705 69.5188 0.100106 70.8666 0.0507786 72.2231C0.0174098 73.1444 0 74.07 0 75C0 75.1872 0.00290163 75.3729 0.00290163 75.5586C0.0203114 77.9016 0.143631 80.2186 0.371409 82.5051C0.458458 83.3857 0.562917 84.262 0.680433 85.134C0.7994 86.0117 0.932875 86.8851 1.08086 87.7527C2.12109 93.8258 3.89109 99.6494 6.298 105.131C6.68391 106.01 7.08724 106.88 7.50653 107.742C7.93452 108.623 8.37847 109.493 8.83983 110.354C13.6652 119.365 20.2766 127.274 28.2024 133.612C31.3333 136.114 34.6687 138.372 38.1797 140.354C49.0565 146.495 61.6177 150 74.9985 150C103.636 150 128.524 133.95 141.159 110.354C141.62 109.493 142.064 108.623 142.492 107.742C142.911 106.88 143.313 106.01 143.701 105.131C146.1 99.6682 147.866 93.8635 148.908 87.8122C149.057 86.9431 149.192 86.0697 149.311 85.192C149.43 84.3201 149.534 83.4423 149.621 82.5602C149.856 80.2113 149.983 77.832 149.996 75.4251C149.997 75.2829 149.999 75.1422 149.999 75C150 74.0076 149.98 73.0196 149.942 72.0374ZM119.465 93.1729C119.465 100.22 113.732 105.952 106.686 105.952H69.571L54.0662 121.132C52.9302 122.243 51.4344 122.831 49.911 122.831C49.1334 122.831 48.3499 122.678 47.6028 122.363C45.3903 121.433 43.9612 119.282 43.9612 116.882V105.952H43.3141C36.2675 105.952 30.5353 100.22 30.5353 93.1729V53.1913C30.5353 46.1447 36.2675 40.4125 43.3141 40.4125H106.684C113.731 40.4125 119.463 46.1447 119.463 53.1913V93.1729H119.465Z" fill="black"/>
<path d="M106.686 46.2144H43.3141C39.468 46.2144 36.3386 49.3438 36.3386 53.1899V93.1715C36.3386 97.0176 39.468 100.147 43.3141 100.147H49.7645V116.881C49.7645 116.942 49.7645 116.975 49.8515 117.013C49.9386 117.049 49.9632 117.026 50.0068 116.984L67.2033 100.147H106.684C110.531 100.147 113.66 97.0176 113.66 93.1715V53.1913C113.661 49.3438 110.532 46.2144 106.686 46.2144ZM56.4107 79.7921C53.6382 79.7921 51.3923 77.5448 51.3923 74.7737C51.3923 72.0026 53.6396 69.7553 56.4107 69.7553C59.1817 69.7553 61.4291 72.0026 61.4291 74.7737C61.4291 77.5448 59.1832 79.7921 56.4107 79.7921ZM75.2713 79.7921C72.4988 79.7921 70.2529 77.5448 70.2529 74.7737C70.2529 72.0026 72.5002 69.7553 75.2713 69.7553C78.0424 69.7553 80.2897 72.0026 80.2897 74.7737C80.2897 77.5448 78.0438 79.7921 75.2713 79.7921ZM94.1319 79.7921C91.3594 79.7921 89.1135 77.5448 89.1135 74.7737C89.1135 72.0026 91.3609 69.7553 94.1319 69.7553C96.903 69.7553 99.1503 72.0026 99.1503 74.7737C99.1503 77.5448 96.9044 79.7921 94.1319 79.7921Z" fill="black"/>
<path d="M106.686 40.411H43.3142C36.2676 40.411 30.5354 46.1432 30.5354 53.1898V93.1714C30.5354 100.218 36.2676 105.95 43.3142 105.95H43.9613V116.881C43.9613 119.28 45.3903 121.432 47.6028 122.362C48.35 122.677 49.1334 122.829 49.9111 122.829C51.4344 122.829 52.9317 122.241 54.0662 121.13L69.5711 105.95H106.684C113.731 105.95 119.463 100.218 119.463 93.1714V53.1913C119.465 46.1446 113.731 40.411 106.686 40.411ZM116.563 93.1729C116.563 98.6062 112.118 103.05 106.686 103.05H68.3872L52.0365 119.058C50.1098 120.944 46.8629 119.579 46.8629 116.884V103.051H43.3142C37.8809 103.051 33.437 98.6062 33.437 93.1743V53.1913C33.437 47.7579 37.8823 43.3141 43.3142 43.3141H106.684C112.118 43.3141 116.562 47.7594 116.562 53.1913V93.1729H116.563Z" fill="white"/>
<path d="M106.686 43.3127H43.3142C37.8809 43.3127 33.437 47.758 33.437 53.1899V93.1715C33.437 98.6048 37.8823 103.049 43.3142 103.049H46.8629V116.881C46.8629 119.578 50.1098 120.943 52.0365 119.056L68.3872 103.047H106.684C112.118 103.047 116.562 98.6019 116.562 93.1701V53.1914C116.563 47.758 112.118 43.3127 106.686 43.3127ZM113.661 93.173C113.661 97.0191 110.532 100.149 106.686 100.149H67.2033L50.0068 116.985C49.9633 117.027 49.9386 117.052 49.8516 117.014C49.7645 116.978 49.7645 116.945 49.7645 116.882V100.149H43.3142C39.4681 100.149 36.3386 97.0191 36.3386 93.173V53.1914C36.3386 49.3452 39.4681 46.2158 43.3142 46.2158H106.684C110.531 46.2158 113.66 49.3452 113.66 53.1914V93.173H113.661Z" fill="white"/>
<path d="M56.4107 79.792C59.1823 79.792 61.4291 77.5452 61.4291 74.7736C61.4291 72.0021 59.1823 69.7552 56.4107 69.7552C53.6391 69.7552 51.3923 72.0021 51.3923 74.7736C51.3923 77.5452 53.6391 79.792 56.4107 79.792Z" fill="white"/>
<path d="M75.2713 79.792C78.0429 79.792 80.2897 77.5452 80.2897 74.7736C80.2897 72.0021 78.0429 69.7552 75.2713 69.7552C72.4997 69.7552 70.2529 72.0021 70.2529 74.7736C70.2529 77.5452 72.4997 79.792 75.2713 79.792Z" fill="white"/>
<path d="M94.1319 79.792C96.9035 79.792 99.1503 77.5452 99.1503 74.7736C99.1503 72.0021 96.9035 69.7552 94.1319 69.7552C91.3603 69.7552 89.1135 72.0021 89.1135 74.7736C89.1135 77.5452 91.3603 79.792 94.1319 79.792Z" fill="white"/>
</svg>
