<svg fill="none" height="150" viewBox="0 0 150 150" width="150" xmlns="http://www.w3.org/2000/svg"><path d="m128.046 21.9539c-14.188-14.16027-33.0131-21.9539-53.046-21.9539s-38.8584 7.79363-53.0461 21.9539c-14.16027 14.1877-21.9539 33.0132-21.9539 53.0461s7.79363 38.858 21.9539 53.046c14.1603 14.16 33.0132 21.954 53.0461 21.954s38.858-7.794 53.046-21.954c14.16-14.16 21.954-33.0131 21.954-53.046s-7.794-38.8584-21.954-53.0461z" fill="#3cc5d1"/><g fill="#000"><path d="m67.1513 60.73c4.0066 0 7.2448-3.2382 7.2448-7.2447 0-4.0066-3.2382-7.2448-7.2448-7.2448s-7.2448 3.2382-7.2448 7.2448c0 4.0065 3.2382 7.2447 7.2448 7.2447zm0-10.8671c2.0033 0 3.6224 1.6191 3.6224 3.6224s-1.6191 3.6224-3.6224 3.6224-3.6224-1.6191-3.6224-3.6224 1.6191-3.6224 3.6224-3.6224z"/><path d="m88.8586 67.9749c-4.0066 0-7.2448 3.2382-7.2448 7.2447 0 4.0066 3.2382 7.2448 7.2448 7.2448s7.2448-3.2382 7.2448-7.2448c0-4.0065-3.2382-7.2447-7.2448-7.2447zm0 10.8671c-2.0033 0-3.6224-1.6191-3.6224-3.6224s1.6191-3.6224 3.6224-3.6224 3.6224 1.6191 3.6224 3.6224-1.6191 3.6224-3.6224 3.6224z"/><path d="m91.1704 46.5432-29.98 29.98 4.6571 4.6571 29.98-29.98z"/><path d="m121.433 90.6422c-2.525-3.6498-7.053-5.0494-11.06-3.6773v-39.4896l8.37 5.4885 3.623-5.5159-16.603-10.9221v-14.27h-6.5862v9.9616l-21.1306-13.8859-45.2799 29.1164 3.5675 5.5434 9.6322-6.202v37.0746h-.4116-3.2931-28.7596v6.5862h9.8244v18.1939h-6.7783v6.587h6.7783v7.189h22.2009v-1.152l24.6158 7.629c1.7014.521 3.4577.796 5.1866.796 3.4028 0 6.7508-.988 9.6322-2.937l33.8914-22.585c2.168-1.454 3.65-3.65 4.116-6.2291.494-2.5522-.055-5.1317-1.536-7.2997zm-68.9082-48.079 25.4665-16.3831 25.7957 16.9594v47.7771l-13.6662 8.8639h-1.5642v-1.7563c0-5.6531-4.6103-10.2634-10.2635-10.2634h-16.6026l-1.3447-1.3447c-1.6465-1.6466-3.8145-2.5522-6.1196-2.5522h-1.674v-41.3007zm-13.584 73.2708h-9.0286v-25.3839h9.0286zm77.5522-19.127c-.165.8232-.631 1.5093-1.317 1.9758l-33.8916 22.5852c-2.7168 1.811-6.0922 2.305-9.2207 1.345l-26.5642-8.233v-23.9299h8.6718c.5488 0 1.0703.2195 1.4819.6037l3.2931 3.2931h19.3194c2.0307 0 3.6773 1.6466 3.6773 3.6773v1.7563h-18.2218v6.5865h28.3206l19.7582-12.7885c1.4-.9055 3.238-.5488 4.199.8233.494.6586.659 1.5093.494 2.3052z"/></g></svg>