<svg fill="none" height="150" viewBox="0 0 150 150" width="150" xmlns="http://www.w3.org/2000/svg"><path d="m128.046 21.9539c-14.188-14.16027-33.0131-21.9539-53.046-21.9539s-38.8584 7.79363-53.0461 21.9539c-14.16027 14.1877-21.9539 33.0132-21.9539 53.0461s7.79363 38.858 21.9539 53.046c14.1603 14.16 33.0132 21.954 53.0461 21.954s38.858-7.794 53.046-21.954c14.16-14.16 21.954-33.0131 21.954-53.046s-7.794-38.8584-21.954-53.0461z" fill="#ffc700"/><g fill="#000"><path d="m76.8111 135.071-39.2151-23.6-.1647-.137c-5.2963-4.117-8.3424-10.346-8.3424-17.0695v-57.2173l47.4204-19.6762 47.4207 19.6762v57.2996c0 6.6682-2.992 12.8432-8.233 16.9872l-.165.137-.192.11zm-35.0164-29.72 34.989 21.049 34.4953-21.021c3.348-2.717 5.241-6.7237 5.241-11.0322v-52.36l-40.0107-16.6027-40.0384 16.6027v52.2777c0 4.3633 1.9484 8.3695 5.3238 11.0865z"/><path d="m74.8353 95.4171-21.5697-18.3041 5.3238-6.2843 15.0934 12.8156 22.0636-27.6619 6.4486 5.1317z"/></g></svg>