<svg fill="none" height="100" viewBox="0 0 100 100" width="100" xmlns="http://www.w3.org/2000/svg"><g fill="#000"><path d="m85.3641 14.6359c-9.4585-9.44014-22.0088-14.6359-35.3641-14.6359s-25.9056 5.19576-35.3641 14.6359c-9.44014 9.4585-14.6359 22.0088-14.6359 35.3641s5.19576 25.9056 14.6359 35.3641c9.4402 9.4402 22.0088 14.6359 35.3641 14.6359s25.9056-5.1957 35.3641-14.6359c9.4402-9.4402 14.6359-22.0088 14.6359-35.3641s-5.1957-25.9056-14.6359-35.3641zm-35.3641 81.5222c-25.4482 0-46.15807-20.7099-46.15807-46.1581s20.70987-46.15807 46.15807-46.15807 46.1581 20.70987 46.1581 46.15807-20.7099 46.1581-46.1581 46.1581z"/><path d="m19.96 29.5645v12.8613h3.6955v6.5679h2.7077v11.727h-2.7077v6.8789h-3.6955v11.9283h60.4647v-11.9283h-3.6956v-6.8789h-2.8174v-11.727h2.7991v-6.5679h3.6956v-12.8613l-30.2232-18.5328zm3.6955 9.5682h-.4025v-5.6897h15.8251c.4391 2.1954 1.5368 4.1713 3.0736 5.6897h-.2012-1.8295zm39.2975 9.861v11.727h-2.7076v6.8789h-1.8295v-6.8789h-2.7992v-11.727h2.7992v-6.5679h1.8295v6.5679zm-5.1226-17.1972c-.0366.5671-.1463 1.116-.2927 1.6465-.9513 3.2565-3.97 5.6348-7.5375 5.6348s-6.5679-2.3783-7.5375-5.6348c-.1646-.5305-.2561-1.0794-.2927-1.6465-.0183-.183-.0183-.3842-.0183-.5672 0-.3659.0183-.7318.0732-1.0794.5305-3.8236 3.8053-6.7874 7.7753-6.7874s7.2448 2.9638 7.7753 6.7874c.0549.3476.0732.7135.0732 1.0794 0 .183 0 .3842-.0183.5672zm-2.7076 32.2173v3.2748h-9.8793v-3.2748zm-7.1716-3.5858v-11.416h4.3725v11.416zm-2.7077-14.7274v-3.2748h9.8793v3.2748zm-.5854 3.2931v11.727h-2.7076v6.8789h-1.8295v-6.8789h-2.7992v-11.727h2.7992v-6.5679h1.8295v6.5679zm-7.8302 15.0201v3.2748h-9.8793v-3.2748zm-7.1716-3.5858v-11.416h4.3725v11.416zm-2.7077-14.7274v-3.2748h9.8793v3.2748zm50.1647 25.1921v5.3421h-53.8603v-5.3421zm-13.5749-25.1921v-3.2748h9.8793v3.2748zm7.0802 3.2931v11.416h-4.3725v-11.416zm2.7991 15.0201v3.2748h-9.8793v-3.2748zm3.6956-24.8811h-.4025-16.4654-1.8295-.5672c1.5368-1.5184 2.6162-3.4943 3.0736-5.6897h16.191zm-16.0081-8.9828c-.5488-5.6531-5.3055-10.0805-11.105-10.0805-5.7812 0-10.5562 4.4274-11.105 10.0805h-13.6297l24.8994-15.2579 24.8993 15.2579z"/></g></svg>