<svg width="150" height="150" viewBox="0 0 150 150" fill="none" xmlns="http://www.w3.org/2000/svg">
<path d="M149.942 72.0374C149.887 70.6316 149.793 69.2345 149.662 67.8489C149.38 64.8776 148.928 61.9571 148.31 59.0961C148.012 57.7179 147.676 56.3526 147.303 55.0034C147.001 53.9109 146.676 52.8286 146.328 51.7565C136.544 21.7129 108.308 0 75 0C41.7168 0 13.4984 21.681 3.69378 51.6883C3.34849 52.7459 3.0264 53.8137 2.72754 54.8902C2.36628 56.1902 2.03985 57.5031 1.74823 58.8292C1.07796 61.8803 0.593384 65.0024 0.306122 68.1812C0.185705 69.5188 0.100106 70.8652 0.0507786 72.2231C0.0174098 73.1444 0 74.07 0 75C0 75.1872 0.00290163 75.3729 0.00290163 75.5586C0.0203114 77.9016 0.143631 80.2186 0.371409 82.5051C0.458458 83.3857 0.562917 84.262 0.680433 85.134C0.7994 86.0117 0.932875 86.8851 1.08086 87.7527C2.12109 93.8258 3.89109 99.6494 6.298 105.131C6.68391 106.01 7.08724 106.88 7.50653 107.742C7.93452 108.623 8.37847 109.493 8.83983 110.354C13.6652 119.365 20.2766 127.274 28.2024 133.612C31.3333 136.114 34.6687 138.372 38.1797 140.354C49.0565 146.495 61.6177 150 74.9985 150C103.636 150 128.524 133.95 141.159 110.354C141.62 109.493 142.064 108.623 142.492 107.742C142.911 106.88 143.313 106.01 143.701 105.131C146.1 99.6682 147.866 93.8635 148.908 87.8122C149.057 86.9431 149.192 86.0697 149.311 85.192C149.43 84.3201 149.534 83.4423 149.621 82.5602C149.856 80.2113 149.983 77.832 149.996 75.4251C149.997 75.2829 149.999 75.1422 149.999 75C150 74.0076 149.98 73.0196 149.942 72.0374ZM122.226 110.371C119.231 114.52 115.257 117.963 110.734 120.329C106.058 122.775 100.78 124.068 95.4696 124.068C90.1596 124.068 84.8801 122.775 80.2055 120.329C75.6819 117.963 71.7095 114.519 68.7136 110.371C64.6426 104.73 62.491 98.0636 62.491 91.0896C62.491 87.8035 62.9684 84.5928 63.8911 81.533L52.7082 72.9892C49.3089 76.474 44.5633 78.6387 39.3113 78.6387C28.9757 78.6387 20.5973 70.2602 20.5973 59.926C20.5973 49.5904 28.9757 41.2119 39.3113 41.2119C45.1726 41.2119 50.4028 43.9075 53.834 48.1251L74.9318 37.1961C74.6271 36.1515 74.4603 35.0474 74.4603 33.9041C74.4603 27.435 79.705 22.1888 86.1756 22.1888C92.6448 22.1888 97.891 27.4335 97.891 33.9041C97.891 40.3733 92.6463 45.6195 86.1756 45.6195C82.4601 45.6195 79.1508 43.8872 77.0036 41.1887L56.2409 51.9451C57.3842 54.3665 58.0254 57.0708 58.0254 59.926C58.0254 63.3906 57.0824 66.6346 55.4415 69.4187L65.5653 77.153C67.1728 73.7102 69.3853 70.5387 72.152 67.772C78.3804 61.5437 86.6631 58.1125 95.471 58.1125C104.279 58.1125 112.562 61.5422 118.79 67.772C125.018 74.0004 128.45 82.2831 128.45 91.091C128.448 98.0651 126.297 104.732 122.226 110.371Z" fill="black"/>
<path d="M99.7648 89.8458C105.487 87.4755 108.205 80.915 105.834 75.1926C103.464 69.4702 96.9034 66.7528 91.1809 69.1231C85.4585 71.4935 82.7411 78.054 85.1115 83.7764C87.4818 89.4988 94.0423 92.2162 99.7648 89.8458Z" fill="black"/>
<path d="M95.4696 93.7881C85.1514 93.7881 76.1215 99.3026 71.1626 107.545C71.3236 107.781 71.4861 108.016 71.6544 108.25C77.1661 115.885 86.0683 120.444 95.4696 120.444C104.871 120.444 113.773 115.885 119.285 108.25C119.453 108.018 119.616 107.781 119.777 107.545C114.818 99.3026 105.788 93.7881 95.4696 93.7881Z" fill="black"/>
<path d="M95.4695 58.1125C86.6601 58.1125 78.3788 61.5423 72.1505 67.7721C69.3838 70.5388 67.1713 73.7103 65.5638 77.1531L55.44 69.4188C57.0809 66.6361 58.0239 63.3921 58.0239 59.926C58.0239 57.0708 57.3841 54.3651 56.2394 51.9451L77.002 41.1887C79.1478 43.8873 82.4571 45.6195 86.1741 45.6195C92.6433 45.6195 97.8894 40.3748 97.8894 33.9042C97.8894 27.435 92.6447 22.1888 86.1741 22.1888C79.7049 22.1888 74.4587 27.4335 74.4587 33.9042C74.4587 35.0474 74.6256 36.1515 74.9302 37.1961L53.8325 48.1251C50.4013 43.9076 45.1696 41.212 39.3098 41.212C28.9742 41.212 20.5957 49.5904 20.5957 59.926C20.5957 70.2617 28.9742 78.6387 39.3098 78.6387C44.5618 78.6387 49.3074 76.4741 52.7066 72.9892L63.8895 81.5331C62.9683 84.5928 62.4895 87.805 62.4895 91.0896C62.4895 98.0637 64.6411 104.73 68.712 110.371C71.7065 114.519 75.6803 117.963 80.204 120.329C84.88 122.775 90.158 124.068 95.468 124.068C100.778 124.068 106.058 122.775 110.732 120.329C115.256 117.963 119.228 114.519 122.224 110.371C126.295 104.73 128.447 98.0637 128.447 91.0896C128.447 82.2802 125.017 73.999 118.787 67.7706C112.56 61.5437 104.279 58.1125 95.4695 58.1125ZM119.285 108.248C113.773 115.884 104.871 120.443 95.4695 120.443C86.0682 120.443 77.166 115.884 71.6543 108.248C71.486 108.016 71.3235 107.78 71.1625 107.543C76.1199 99.3012 85.1498 93.7867 95.4695 93.7867C105.789 93.7867 114.818 99.3012 119.776 107.543C119.615 107.781 119.451 108.016 119.285 108.248ZM106.684 79.4845C106.684 85.6781 101.663 90.6993 95.4695 90.6993C89.2759 90.6993 84.2547 85.6781 84.2547 79.4845C84.2547 73.291 89.2759 68.2697 95.4695 68.2697C101.663 68.2697 106.684 73.291 106.684 79.4845Z" fill="white"/>
</svg>
