<svg fill="none" height="24" viewBox="0 0 259 24" width="259" xmlns="http://www.w3.org/2000/svg"><g fill="#ffc700"><path d="m23.2099 15.6339c-.8088-.7865-1.2114-1.1824-2.0184-1.978-4.6609-4.46214-9.2395-9.00611-13.73593-13.6319742h-7.45557s2.16357.8102842 2.03481 3.2484842v20.63119c1.77729-.1369 3.5546-.2707 5.33189-.4014v-16.15268c4.0854 4.00008 8.2329 7.93238 12.4428 11.79688 2.3576 2.0587 5.5931 3.2045 8.7233 2.9332.0084-7.3525.0181-14.7044.029-22.0556742h-5.3373c-.0049 5.2039442-.0097 10.4072742-.0146 15.6099742z"/><path d="m58.2697.735207c-1.064-.475419-2.5396-.7137212-4.427-.7149433h-11.8098c-1.9151 0-3.4119.2499243-4.4904.7497863-1.0785.49986-1.8341 1.23865-2.267 2.21638-.4316.97772-.6486 2.17911-.651 3.60414 0 2.83907-.0048 5.67993-.0145 8.52273 0 1.4519.2206 2.6588.6619 3.6206.4413.9619 1.2018 1.6573 2.2815 2.0862 1.0754.4308 2.5589.5903 4.445.4914 3.9354-.2054 7.8715-.3991 11.8081-.5812 1.9786-.0532 4.3526-.396 5.7853-1.8332 1.0536-1.0523 1.5832-2.6545 1.5868-4.6894 0-2.6717.0048-5.34209.0145-8.01128 0-1.34437-.2206-2.46996-.6619-3.3768s-1.1952-1.60166-2.2615-2.084413zm-2.4393 14.048093c.0118.3528-.0572.7037-.2016 1.0252-.1444.3214-.3603.6049-.6308.8282-.5537.4656-1.3287.718-2.325.7571-3.1665.1223-6.3329.2524-9.4994.3905-.9974.044-1.7833-.1448-2.3576-.5665-.5743-.4216-.8627-1.0461-.8651-1.8735 0-3.0945.0049-6.18842.0145-9.2817-.0097-.36027.0662-.71766.2215-1.04209.1552-.32444.3853-.60645.6708-.82232.5924-.46564 1.3747-.70274 2.3467-.7113l9.4995-.07698c.9702 0 1.7374.22915 2.3032.70396.2633.20265.4766.46419.6233.76411.1466.29992.2225.63009.2218.96464z"/><path d="m93.5126 2.64004c-.457-.86712-1.2695-1.52524-2.4447-1.959717-1.5143-.56097-3.4458-.7076243-5.0345-.6599602h-21.6666s3.3044.7736252 3.3007 2.7498472c-.0096 5.79792-.0199 11.59639-.0308 17.39559 6.1226-.2237 12.2452-.418 18.3677-.583 1.6993-.1045 3.4748-.1558 5.078-.7846 1.1716-.4602 1.9841-1.1385 2.4302-2.0166s.671-1.9707.671-3.287l.0109-7.60605c.0036-1.30038-.2237-2.38322-.6819-3.24851zm-4.6681 11.32936c-.0291 1.5693-1.0821 2.3759-3.1593 2.4199-4.2316.0953-8.4632.2023-12.6949.3208.0073-4.4767.0152-8.95471.0236-13.43391 4.2317-.022 8.4633-.04279 12.6949-.06235 1.1861 0 2.0082.22305 2.4665.66914.2206.20964.3956.46353.5136.74542.1181.28189.1766.5856.1719.89167-.0061 2.81585-.0115 5.63233-.0163 8.44933z"/><path d="m123.099.682064c-1.065-.442421-2.541-.6630174-4.429-.6617953h-11.808c-1.915 0-3.412.2230253-4.49.6691133-1.079.446088-1.834 1.101178-2.267 1.965248-.4318.86284-.6488 1.92794-.6513 3.19531v7.56396c0 1.2893.2213 2.3667.6643 3.232.442.8653 1.203 1.5075 2.283 1.9267 1.078.418 2.562.6135 4.452.5866 3.939-.0513 7.878-.091 11.817-.1191 1.937.022 4.304-.1833 5.787-1.4978 1.05-.9368 1.58-2.4199 1.58-4.3154 0-2.4859 0-4.97236 0-7.45944 0-1.24905-.223-2.29828-.667-3.14768-.445-.8494-1.202-1.4953-2.271-1.937716zm-2.405 12.946336c.011.3284-.059.6544-.204.9485s-.361.5471-.626.7362c-.553.4131-1.329.6227-2.327.6288-3.17.0196-6.34.0458-9.511.0788-.997.011-1.783-.1808-2.357-.5756-.279-.1826-.506-.4356-.658-.734-.152-.2983-.225-.6318-.211-.9672 0-2.7707 0-5.54129 0-8.31192-.006-.3317.073-.6593.229-.95119s.384-.53823.662-.71524c.593-.41431 1.375-.62208 2.346-.6233l9.505-.01649c.967 0 1.736.21998 2.305.65996.566.44181.851.9753.849 1.60043z"/><path d="m155.761.0201535c-2.781 4.9631765-5.569 9.9202465-8.366 14.8712465-2.741-4.96078-5.488-9.91785-8.242-14.8712465h-9.413s2.762.3501415 2.762 2.5830165v16.40383c1.781 0 3.562.0061 5.343.0183 0-4.0185 0-8.0375 0-12.05721h.404c.648 1.12561.973 1.68844 1.62 2.81771 1.704 3.0762 3.405 6.1542 5.103 9.234 1.959.0183 2.938.0275 4.897.0531 1.699-3.0676 3.396-6.1358 5.091-9.20462.629-1.12927.945-1.69575 1.574-2.82869h.446v6.11931 6.0681c1.778.0293 3.559.0617 5.341.0971-.007-6.4359-.015-12.87235-.024-19.3094516z"/><path d="m177.393.0202637c-3.9 6.4847663-7.841 12.9432363-11.824 19.3754363 1.969.044 3.939.0905 5.909.1393 1.048-1.6499 1.574-2.4913 2.622-4.1614 4.828.1051 9.655.2236 14.483.3556.958 1.7563 1.436 2.6399 2.394 4.4126 2.076.0795 4.152.1608 6.23.2439-3.889-6.8258-7.837-13.61424-11.847-20.3654363zm-1.84 12.1140363c1.864-3.02242 3.719-6.05091 5.565-9.08553h.405c1.865 3.0945 3.718 6.19631 5.558 9.30543-3.843-.0794-7.686-.1527-11.528-.2199z"/><path d="m222.567 12.6366c.77-.3497 1.443-.8855 1.959-1.5601.433-.5759.748-1.23342.927-1.93403.152-.59047.232-1.19748.239-1.80759v-.70395c-.006-.73372-.075-1.4655-.207-2.18704-.141-.78183-.451-1.52277-.906-2.17057-.473-.67829-1.202-1.22826-2.188-1.649907-.985-.421644-2.34-.62939283-4.064-.62328204h-20.823s3.306.61778404 3.311 2.82499904c.011 5.90913.022 11.81767.031 17.72557 1.781.077 3.561.1564 5.339.2383 0-2.6228-.004-5.2461-.014-7.8701l1.253.0367c2.131.0623 3.185.3556 4.594.8891 1.749.6753 3.424 1.5356 4.994 2.5665 2.843 1.8919 5.668 3.8071 8.475 5.7454 2.61.1552 5.219.3153 7.826.4803-4.596-3.2485-9.293-6.3888-14.081-9.3385 1.375-.0293 2.487-.2499 3.335-.6618zm-7.586-2.77001c-.809.01589-1.725.01221-2.749-.01101-.863-.02078-1.794-.05376-2.791-.09898-.998-.04522-2.089-.11672-3.276-.2145l-.01-6.14133 11.039.08983c1.186.00855 2.009.28292 2.468.82312.464.55118.71 1.25636.691 1.9799v.83961c.016.33844-.039.67647-.16.99224-.122.31576-.308.60225-.546.841-.469.4638-1.313.75713-2.484.83229-.637.02567-1.373.04217-2.182.06783z"/><path d="m253.666.0238077v16.9995923c0 1.2319-.323 2.0489-.968 2.451-.681.4087-1.473.5902-2.262.5188-2.854-.1784-5.709-.3501-8.565-.5151-.823-.0233-1.623-.2827-2.305-.748-.62-.4436-.931-1.2667-.932-2.4693l-.017-16.2388273h-5.339c.007 5.2797173.014 10.5600273.02 15.8409273-.076 1.6133.454 3.7142 1.462 5.0011 1.211 1.5454 3.264 2.1119 5.134 2.1999 4.189.286 8.377.586 12.564.9001 1.669.1247 2.975-.0751 3.918-.6123.935-.5295 1.651-1.3802 2.018-2.3979.405-1.0596.606-2.33.606-3.8003v-17.1296923z"/></g></svg>