<svg fill="none" height="150" viewBox="0 0 150 150" width="150" xmlns="http://www.w3.org/2000/svg"><path d="m128.046 21.9539c-14.188-14.16027-33.0131-21.9539-53.046-21.9539s-38.8584 7.79363-53.0461 21.9539c-14.16027 14.1877-21.9539 33.0132-21.9539 53.0461s7.79363 38.858 21.9539 53.046c14.1603 14.16 33.0132 21.954 53.0461 21.954s38.858-7.794 53.046-21.954c14.16-14.16 21.954-33.0131 21.954-53.046s-7.794-38.8584-21.954-53.0461z" fill="#ffc700"/><g fill="#000"><path d="m26.0154 75.0001h-13.7212c0-31.7783 23.7651-58.562 55.2689-62.3216l1.6191 13.6114c-24.5883 2.9363-43.1668 23.8748-43.1668 48.7102z"/><path d="m139.983 75.494h-18.112l-.054-2.1405c-.028-1.1526-.11-2.3052-.22-3.4029-2.168-21.4325-19.237-38.9407-40.5872-41.6849l-1.9759-.2196v-18.16683l2.415.24703c.6586.0548 1.2623.1372 1.8386.2195 14.4347 1.8386 27.9915 8.6169 38.1995 19.0724 10.209 10.483 16.658 24.2316 18.14 38.7487.164 1.6739.274 3.3754.302 5.1042zm-13.858-4.3908h9.358c-.055-.8507-.11-1.674-.192-2.5247-1.372-13.5291-7.382-26.3721-16.905-36.1142-9.385-9.5773-21.7615-15.8342-34.9613-17.7003v9.4402c22.4753 3.7321 40.2303 22.5027 42.5353 45.3073.083.5489.11 1.0703.165 1.5917z"/><path d="m79.0339 139.654v-18.167l1.921-.247c18.8804-2.387 34.7141-16.355 39.4071-34.7417l.412-1.6465h18.441l-.521 2.6345c-2.745 13.8307-9.742 26.1247-20.253 35.5927-10.346 9.33-23.1337 14.956-36.9921 16.356zm4.3908-14.352v9.44c11.9923-1.674 23.0243-6.806 32.0803-14.956 9.138-8.233 15.422-18.743 18.304-30.5709h-9.66c-2.717 9.2756-7.958 17.5359-15.23 23.9569-7.218 6.394-15.9992 10.566-25.4943 12.13z"/><path d="m69.7035 139.572-2.4423-.302c-14.5719-1.729-27.7717-8.15-38.1998-18.578-9.1658-9.166-15.3129-20.664-17.7827-33.2605l-.5214-2.607h18.4413l.4116 1.6465c4.6927 18.167 19.7037 31.751 38.2273 34.605l1.866.274zm-53.54-50.3568c2.607 10.7026 8.1229 20.4718 16.0263 28.3758 9.1383 9.138 20.5544 14.983 33.1504 16.986v-9.495c-9.2206-1.756-17.7552-6.037-24.753-12.404-7.0253-6.366-12.0747-14.4617-14.7366-23.4628z"/><path d="m90.258 54.3359c-.1921-.3293-.4665-.494-.8233-.494h-5.7354c-.4117 0-.7135.1921-.8782.5763l-5.7354 12.6235c-.1372.3293-.4117.9605-.8233 1.8386-.4116.8782-.7135 1.5643-.9056 2.0308-.7409-1.7289-1.2898-2.9912-1.674-3.7596l-6.4489-12.7607c-.1921-.3568-.494-.5489-.8782-.5489h-5.8178c-.3567 0-.6311.1647-.8507.494-.1646.3293-.1646.6312 0 .9605l9.6323 17.3436h-6.4215c-.247 0-.494.0823-.6861.2744s-.2744.4116-.2744.686v3.1285c0 .2744.0823.5214.2744.686.1921.1921.4116.2745.6861.2745h8.6443v2.5521h-8.6443c-.247 0-.494.0823-.6861.2744s-.2744.4116-.2744.6861v3.101c0 .2744.0823.5214.2744.686.1921.1921.4116.2744.6861.2744h8.6443v9.9067c0 .2745.0823.5214.2744.6861s.4117.2744.6861.2744h5.1592c.2469 0 .4939-.0823.686-.2744s.2744-.4116.2744-.6861v-9.9067h8.6993c.247 0 .4939-.0823.686-.2744s.2745-.4116.2745-.686v-3.101c0-.247-.0824-.494-.2745-.6861s-.4116-.2744-.686-.2744h-8.6993v-2.5521h8.6993c.247 0 .4939-.0824.686-.2745s.2745-.4116.2745-.686v-3.1285c0-.2469-.0824-.4939-.2745-.686s-.4116-.2744-.686-.2744h-6.449l9.3853-17.3711c.1921-.3293.1921-.6586 0-.933z"/></g></svg>